#!OML:ASF E:\acrobat2\Project_11_07_03\Capture day 1\Session 1\Acrobat.ASF
:FULLY-SPECIFIED
:DEGREES
383
root 10.1519 28.0991 29.5445 7.58915 -3.24626 -3.30433
lowerback 3.08616 0.0454259 -3.30397
upperback 3.80906 0.0573575 -3.04201
thorax 2.1881 -0.0110311 -1.27726
lowerneck -2.73738 1.50006 -2.25156
upperneck 27.4846 1.14946 4.82562
head 8.96466 0.748774 2.13331
rclavicle -2.42517e-014 -1.11319e-014
rhumerus -49.8777 2.12732 -81.2077
rradius 55.1974
rwrist 2.36685
rhand -2.30618 -16.1353
rfingers 7.12502
rthumb 23.3797 -44.7353
lclavicle -2.42517e-014 -1.11319e-014
lhumerus -15.2754 -11.2595 70.4094
lradius 41.4513
lwrist 7.86147
lhand -22.4148 -16.8542
lfingers 7.12502
lthumb 4.00821 13.0878
rfemur -22.8526 -3.84066 20.112
rtibia 24.7936
rfoot -20.4123 -10.1726
rtoes -14.5558
lfemur -15.7024 -8.28641 -15.2946
ltibia 17.0562
lfoot -11.4228 -11.0526
ltoes 7.16331
384
root 10.1592 28.0706 29.4845 7.34607 -3.24397 -2.95706
lowerback 3.07473 0.0116088 -3.48877
upperback 3.80396 0.0117097 -3.14341
thorax 2.19025 -0.0369252 -1.27807
lowerneck -2.88914 1.50286 -2.31684
upperneck 27.7687 1.15707 4.82094
head 9.0927 0.746696 2.15195
rclavicle -1.47101e-014 2.22639e-014
rhumerus -50.4586 1.79985 -80.8797
rradius 54.8396
rwrist 2.49186
rhand -2.00787 -16.1979
rfingers 7.12502
rthumb 23.6658 -44.7612
lclavicle -1.47101e-014 2.22639e-014
lhumerus -15.2318 -11.5442 70.4678
lradius 42.3382
lwrist 7.80125
lhand -22.4875 -17.1401
lfingers 7.12502
lthumb 3.938 12.8033
rfemur -22.6845 -3.70815 19.7917
rtibia 24.4781
rfoot -20.6134 -10.6571
rtoes -13.9153
lfemur -15.237 -8.76909 -15.7414
ltibia 17.1095
lfoot -12.2412 -11.3152
ltoes 7.00644
385
root 10.1682 28.0396 29.4236 7.08734 -3.2367 -2.70456
lowerback 3.09294 -0.0522266 -3.58133
upperback 3.7942 -0.0755901 -3.17446
thorax 2.17073 -0.0820964 -1.25731
lowerneck -3.03331 1.53465 -2.44967
upperneck 28.0589 1.22343 4.77671
head 9.21949 0.760701 2.17361
rclavicle -7.95139e-015 4.29375e-014
rhumerus -50.9694 1.65906 -80.5122
rradius 54.451
rwrist 2.61785
rhand -1.7722 -16.2982
rfingers 7.12502
rthumb 23.8919 -44.8321
lclavicle -7.95139e-015 4.29375e-014
lhumerus -15.2603 -11.6844 70.5819
lradius 43.2358
lwrist 7.74202
lhand -22.6102 -17.4809
lfingers 7.12502
lthumb 3.81953 12.4646
rfemur -22.5231 -3.5685 19.5953
rtibia 24.3607
rfoot -20.7434 -11.0181
rtoes -13.5401
lfemur -14.7887 -9.303 -16.0648
ltibia 17.2299
lfoot -13.1194 -11.518
ltoes 6.83001
386
root 10.1807 28.0063 29.3658 6.8025 -3.20073 -2.57716
lowerback 3.1046 -0.146305 -3.50971
upperback 3.79394 -0.200863 -3.14311
thorax 2.16397 -0.143245 -1.26349
lowerneck -3.1603 1.58731 -2.63002
upperneck 28.3541 1.33429 4.69817
head 9.34353 0.786213 2.19541
rclavicle -1.98785e-015 -1.43125e-014
rhumerus -51.4169 1.68018 -80.1168
rradius 54.0365
rwrist 2.73274
rhand -1.60839 -16.444
rfingers 7.12502
rthumb 24.0489 -44.9572
lclavicle -1.98785e-015 -1.43125e-014
lhumerus -15.3538 -11.6931 70.7511
lradius 44.1375
lwrist 7.66429
lhand -22.7903 -17.8704
lfingers 7.12502
lthumb 3.64564 12.0781
rfemur -22.3014 -3.51871 19.5649
rtibia 24.3762
rfoot -20.7298 -11.1585
rtoes -13.6684
lfemur -14.303 -9.88392 -16.2596
ltibia 17.3761
lfoot -14.0046 -11.7299
ltoes 7.14098
387
root 10.1962 27.9713 29.3119 6.50755 -3.13815 -2.51987
lowerback 3.07419 -0.243875 -3.31122
upperback 3.80459 -0.326412 -3.08891
thorax 2.19084 -0.2021 -1.31731
lowerneck -3.26629 1.63711 -2.81372
upperneck 28.6506 1.44736 4.6024
head 9.46491 0.809768 2.21195
rclavicle -1.86858e-014 6.36111e-015
rhumerus -51.8037 1.71475 -79.7087
rradius 53.5824
rwrist 2.87484
rhand -1.51683 -16.5891
rfingers 7.12502
rthumb 24.1367 -45.0907
lclavicle -1.86858e-014 6.36111e-015
lhumerus -15.4773 -11.6503 70.9679
lradius 45.0373
lwrist 7.54244
lhand -23.0208 -18.2761
lfingers 7.12502
lthumb 3.423 11.6762
rfemur -22.0199 -3.56323 19.633
rtibia 24.4683
rfoot -20.5383 -11.0421
rtoes -14.2759
lfemur -13.7957 -10.4703 -16.3943
ltibia 17.5485
lfoot -14.8639 -12.0003
ltoes 7.99169
388
root 10.2134 27.9355 29.2603 6.21253 -3.0721 -2.47068
lowerback 3.00967 -0.323423 -3.06103
upperback 3.81716 -0.425585 -3.03843
thorax 2.23773 -0.246559 -1.40463
lowerneck -3.33417 1.67222 -2.96146
upperneck 28.9191 1.54112 4.48966
head 9.57116 0.825658 2.21365
rclavicle 1.90833e-014 2.54444e-014
rhumerus -52.1483 1.74346 -79.3015
rradius 53.1061
rwrist 3.01198
rhand -1.45409 -16.7139
rfingers 7.12502
rthumb 24.1969 -45.2075
lclavicle 1.90833e-014 2.54444e-014
lhumerus -15.6213 -11.6066 71.2273
lradius 45.9319
lwrist 7.38571
lhand -23.3011 -18.6611
lfingers 7.12502
lthumb 3.15232 11.2953
rfemur -21.6974 -3.63982 19.7167
rtibia 24.6268
rfoot -20.1966 -10.656
rtoes -15.1115
lfemur -13.2988 -10.9976 -16.5278
ltibia 17.7676
lfoot -15.6545 -12.3837
ltoes 9.49315
